<?xml version="1.0" encoding="UTF-8"?>
<svg width="62px" height="62px" viewBox="0 0 62 62" version="1.1" xmlns="http://www.w3.org/2000/svg" xmlns:xlink="http://www.w3.org/1999/xlink">
    <!-- Generator: sketchtool 64 (101010) - https://sketch.com -->
    <title>317FCAFC-688D-4047-A31B-1729C9C67183</title>
    <desc>Created with sketchtool.</desc>
    <g id="Page-1" stroke="none" stroke-width="1" fill="none" fill-rule="evenodd">
        <g id="Coature-main-page-V3" transform="translate(-810.000000, -3529.000000)" fill="#0B151E" fill-rule="nonzero">
            <g id="big-data" transform="translate(810.000000, 3529.000000)">
                <path d="M52.4422868,8.99772116 C46.640166,3.19536041 38.925605,0 30.720004,0 C22.5144029,0 14.7998419,3.19536041 8.99772116,8.99772116 C3.19536041,14.7998419 0,22.5144029 0,30.720004 C0,38.925605 3.19536041,46.640166 8.99772116,52.4422868 C14.7998419,58.2446475 22.5144029,61.4400079 30.720004,61.4400079 C38.925605,61.4400079 46.640166,58.2446475 52.4422868,52.4422868 C58.2446475,46.640166 61.4400079,38.925605 61.4400079,30.720004 C61.4400079,22.5144029 58.2446475,14.7998419 52.4422868,8.99772116 Z M59.4606077,29.7396038 L53.5742469,29.7396038 C53.3382069,24.1701631 51.1021266,19.1098825 47.5664461,15.260162 L51.7263667,11.1001214 C56.3240473,16.0195221 59.2183276,22.5487229 59.4606077,29.7396038 Z M30.720004,1.96080025 C38.2970449,1.96080025 45.1976458,4.90752063 50.3398865,9.71364125 L46.179846,13.8736818 C42.1053654,10.1314813 36.6751247,7.84344101 30.720004,7.84344101 C24.7648832,7.84344101 19.3346425,10.1314813 15.260162,13.8736818 L11.1001214,9.71364125 C16.2423621,4.90764063 23.142963,1.96080025 30.720004,1.96080025 Z M9.71364125,11.1001214 L13.8736818,15.260162 C10.3380013,19.1098825 8.10180105,24.1701631 7.86576102,29.7396038 L1.97940026,29.7396038 C2.22168029,22.5487229 5.11584066,16.0195221 9.71364125,11.1001214 Z M17.3224822,46.767606 C16.9071622,46.420446 16.2888021,46.475406 15.9414021,46.8907261 C15.594122,47.3060461 15.649202,47.9244062 16.0645221,48.2716862 C19.9188026,51.4950067 24.7416032,53.3589669 29.7396038,53.5750869 L29.7396038,59.4604877 C14.6596819,58.9527676 2.48724032,46.780326 1.97940026,31.7004041 L7.86480102,31.7004041 C8.08104104,36.6985247 9.94488128,41.5212054 13.1682017,45.3754859 C13.5153617,45.7909259 14.1337218,45.8460059 14.5491619,45.4986059 C14.9644819,45.1510858 15.0196819,44.5328458 14.6722819,44.1175257 C11.5332015,40.3640452 9.80424127,35.6059246 9.80424127,30.720004 C9.80424127,19.1870425 19.1870425,9.80424127 30.720004,9.80424127 C42.2529655,9.80424127 51.6357667,19.1870425 51.6357667,30.720004 C51.6357667,42.2529655 42.2529655,51.6357667 30.720004,51.6357667 C25.8340833,51.6357667 21.0759627,49.9068064 17.3224822,46.767606 Z M31.7004041,59.4606077 L31.7004041,53.5742469 C40.4497252,53.2033269 47.9420462,47.8956062 51.4579266,40.3711252 L56.8974073,42.6242455 C52.4901668,52.2775268 42.8964055,59.0834476 31.7004041,59.4606077 Z M57.6493274,40.8133253 L52.2120067,38.561045 C53.0006468,36.4062047 53.4724869,34.1004044 53.5741269,31.7004041 L59.4604877,31.7004041 C59.3529677,34.8964845 58.7216476,37.9616449 57.6493274,40.8133253 Z" id="Shape"></path>
                <path d="M30.720004,13.0723217 C20.9890827,13.0723217 13.0723217,20.9890827 13.0723217,30.720004 C13.0723217,40.4509252 20.9890827,48.3676862 30.720004,48.3676862 C40.4509252,48.3676862 48.3676862,40.4509252 48.3676862,30.720004 C48.3676862,20.9890827 40.4509252,13.0723217 30.720004,13.0723217 Z M46.375326,29.7396038 L37.2459648,29.7396038 C37.1964048,27.1311635 36.9492048,24.6285632 36.5266847,22.3818029 C38.386805,21.7321228 40.1364052,20.7706827 41.6982054,19.5267625 C44.3836857,22.1610029 46.128006,25.7506833 46.375326,29.7396038 Z M40.1851252,18.2193624 C38.935925,19.1671225 37.5597649,19.9164026 36.1042847,20.4498026 C35.9438446,19.8139226 35.7682846,19.2049225 35.5766446,18.6300024 C35.1442845,17.3330422 34.6524045,16.2544821 34.1094044,15.403202 C36.3516047,15.8989221 38.414765,16.8754822 40.1851252,18.2193624 Z M26.1554434,29.7396038 C26.2028434,27.3202835 26.4255634,25.0048832 26.8050035,22.926003 C28.0803636,23.216763 29.3928038,23.366763 30.720004,23.366763 C32.0472041,23.366763 33.3597643,23.216643 34.6351245,22.926003 C35.0145645,25.0050032 35.2372846,27.3202835 35.2846846,29.7396038 L26.1554434,29.7396038 Z M35.2845646,31.7004041 C35.2371646,34.1197244 35.0144445,36.4351247 34.6350045,38.514005 C33.3595243,38.2232449 32.0470841,38.0732449 30.719884,38.0732449 C29.3926838,38.0732449 28.0802436,38.2233649 26.8048835,38.514005 C26.4254434,36.4350047 26.2027234,34.1197244 26.1553234,31.7004041 L35.2845646,31.7004041 L35.2845646,31.7004041 Z M30.720004,15.0332419 C31.4890841,15.0332419 32.6802042,16.1409621 33.7165244,19.2501625 C33.9010844,19.8040826 34.0702844,20.3924426 34.2241244,21.0087627 C33.0828043,21.2708427 31.9080041,21.4060828 30.720004,21.4060828 C29.5320038,21.4060828 28.3570837,21.2710827 27.2158835,21.0087627 C27.3697235,20.3923226 27.5389236,19.8039626 27.7234836,19.2501625 C28.7598037,16.1409621 29.9509239,15.0332419 30.720004,15.0332419 Z M27.3319235,15.402722 C26.7883235,16.2543621 26.2958434,17.3319622 25.8631233,18.6298824 C25.6716033,19.2048025 25.4960433,19.8138026 25.3354833,20.4496826 C23.8800031,19.9162826 22.5038429,19.1670025 21.2546427,18.2192424 C23.025483,16.8752422 25.0893632,15.8984421 27.3319235,15.402722 Z M19.7416825,19.5266425 C21.3036028,20.7704427 23.053203,21.7320028 24.9132032,22.3816829 C24.4906832,24.6284432 24.2433631,27.1311635 24.1939231,29.7396038 L15.0645619,29.7396038 C15.312002,25.7506833 17.0563222,22.1610029 19.7416825,19.5266425 Z M15.0646819,31.7004041 L24.1940431,31.7004041 C24.2436031,34.3088444 24.4908032,36.8114448 24.9133232,39.058325 C23.053323,39.7080051 21.3036028,40.6694453 19.7418025,41.9133654 C17.0563222,39.2790051 15.311882,35.6893246 15.0646819,31.7004041 Z M21.2547627,43.2206456 C22.5039629,42.2728855 23.8801231,41.5236054 25.3356033,40.9902053 C25.4961633,41.6260854 25.6717233,42.2350855 25.8633633,42.8100055 C26.2959634,44.1076857 26.7884435,45.1855258 27.3319235,46.0371659 C25.0892432,45.5415659 23.025483,44.5647658 21.2547627,43.2206456 Z M30.720004,46.406766 C29.9509239,46.406766 28.7598037,45.2990459 27.7234836,42.1898454 C27.5389236,41.6359254 27.3697235,41.0475653 27.2158835,40.4312452 C28.3572037,40.1690452 29.5320038,40.0339252 30.720004,40.0339252 C31.9080041,40.0339252 33.0829243,40.1689252 34.2241244,40.4312452 C34.0702844,41.0476853 33.9010844,41.6360454 33.7165244,42.1898454 C32.6802042,45.2990459 31.4890841,46.406766 30.720004,46.406766 Z M34.1080844,46.0372859 C34.6516845,45.1856458 35.1441645,44.1080457 35.5768846,42.8101255 C35.7684046,42.2352055 35.9439646,41.6262054 36.1045247,40.9903253 C37.5600049,41.5237254 38.936165,42.2730055 40.1853652,43.2207656 C38.414525,44.5647658 36.3507647,45.5415659 34.1080844,46.0372859 Z M41.6983254,41.9133654 C40.1364052,40.6695653 38.386805,39.7080051 36.5268047,39.058325 C36.9493248,36.8115648 37.1966448,34.3088444 37.2460848,31.7005241 L46.375446,31.7005241 C46.128006,35.6893246 44.3836857,39.2790051 41.6983254,41.9133654 Z" id="Shape"></path>
            </g>
        </g>
    </g>
</svg>