<?xml version="1.0" encoding="UTF-8"?>
<svg width="14px" height="14px" viewBox="0 0 14 14" version="1.1" xmlns="http://www.w3.org/2000/svg" xmlns:xlink="http://www.w3.org/1999/xlink">
    <!-- Generator: sketchtool 64 (101010) - https://sketch.com -->
    <title>EC7B9B6B-B021-406B-A2D3-DB5B9896366C</title>
    <desc>Created with sketchtool.</desc>
    <defs>
        <path d="M13.6079988,0.918421794 L13.6079988,12.6866239 C13.6079988,13.0912019 13.2708364,13.4160457 12.8577364,13.4160457 L9.38891166,13.4160457 L9.38891166,8.29532736 L11.1567365,8.29532736 L11.420999,6.29901503 L9.3858742,6.29901503 L9.3858742,5.02326518 C9.3858742,4.44445274 9.5498992,4.05168714 10.4034366,4.05168714 L11.4908615,4.05168714 L11.4908615,2.26504668 C11.3025365,2.24142168 10.6585866,2.18531231 9.9052866,2.18531231 C8.3379368,2.18531231 7.26266184,3.1155466 7.26266184,4.82540583 L7.26266184,6.29901503 L5.48876205,6.29901503 L5.48876205,8.29532736 L7.26266184,8.29532736 L7.26266184,13.4189988 L0.750262431,13.4189988 C0.337162468,13.4189988 0,13.0912019 0,12.689577 L0,0.918421794 C0,0.51679683 0.337162468,0.188999983 0.750262431,0.188999983 L12.8546989,0.188999983 C13.2708364,0.188999983 13.6079988,0.51679683 13.6079988,0.918421794 Z" id="path-1"></path>
    </defs>
    <g id="Page-1" stroke="none" stroke-width="1" fill="none" fill-rule="evenodd">
        <g id="Coature-main-page-V3" transform="translate(-1476.000000, -5981.000000)">
            <g id="Group-5" transform="translate(1476.000000, 5981.000000)">
                <g id="facebook">
                    <g fill="#222325" fill-rule="nonzero" id="path-1">
                        <path d="M13.6079988,0.918421794 L13.6079988,12.6866239 C13.6079988,13.0912019 13.2708364,13.4160457 12.8577364,13.4160457 L9.38891166,13.4160457 L9.38891166,8.29532736 L11.1567365,8.29532736 L11.420999,6.29901503 L9.3858742,6.29901503 L9.3858742,5.02326518 C9.3858742,4.44445274 9.5498992,4.05168714 10.4034366,4.05168714 L11.4908615,4.05168714 L11.4908615,2.26504668 C11.3025365,2.24142168 10.6585866,2.18531231 9.9052866,2.18531231 C8.3379368,2.18531231 7.26266184,3.1155466 7.26266184,4.82540583 L7.26266184,6.29901503 L5.48876205,6.29901503 L5.48876205,8.29532736 L7.26266184,8.29532736 L7.26266184,13.4189988 L0.750262431,13.4189988 C0.337162468,13.4189988 0,13.0912019 0,12.689577 L0,0.918421794 C0,0.51679683 0.337162468,0.188999983 0.750262431,0.188999983 L12.8546989,0.188999983 C13.2708364,0.188999983 13.6079988,0.51679683 13.6079988,0.918421794 Z"></path>
                    </g>
                    <g id="Colors/Primary-Clipped">
                        <mask id="mask-2" fill="white">
                            <use xlink:href="#path-1"></use>
                        </mask>
                        <g id="path-1"></g>
                        <g id="Colors/Primary" mask="url(#mask-2)" fill="#FFFFFF" fill-rule="nonzero">
                            <g transform="translate(-2.268000, -2.268000)" id="Rectangle">
                                <rect x="0" y="0" width="18.1439984" height="18.1439984"></rect>
                            </g>
                        </g>
                    </g>
                </g>
            </g>
        </g>
    </g>
</svg>