<?xml version="1.0" encoding="UTF-8"?>
<svg width="15px" height="14px" viewBox="0 0 15 14" version="1.1" xmlns="http://www.w3.org/2000/svg" xmlns:xlink="http://www.w3.org/1999/xlink">
    <!-- Generator: sketchtool 64 (101010) - https://sketch.com -->
    <title>591E9D24-2643-49F2-9EFA-AFF8C65B8158</title>
    <desc>Created with sketchtool.</desc>
    <defs>
        <path d="M3.04593234,13.4189988 L0.224724821,13.4189988 L0.224724821,4.58620272 L3.04593234,4.58620272 L3.04593234,13.4189988 Z M1.63381017,3.38132783 C0.731874071,3.38132783 0,2.65485914 0,1.77778109 C0,0.900703046 0.731874071,0.188999983 1.63381017,0.188999983 C2.53574626,0.188999983 3.26762034,0.900703046 3.26762034,1.77778109 C3.26762034,2.65485914 2.53574626,3.38132783 1.63381017,3.38132783 Z M13.604962,13.4189988 L10.7898281,13.4189988 L10.7898281,9.1192492 C10.7898281,8.09451488 10.7685703,6.78037441 9.32304312,6.78037441 C7.85625817,6.78037441 7.63153334,7.8937024 7.63153334,9.04542104 L7.63153334,13.4189988 L4.81336266,13.4189988 L4.81336266,4.58620272 L7.51917096,4.58620272 L7.51917096,5.79107758 L7.55864965,5.79107758 C7.93521556,5.0970933 8.85537256,4.36471837 10.2280161,4.36471837 C13.0826286,4.36471837 13.6079988,6.19270254 13.6079988,8.56701484 L13.6079988,13.4189988 L13.604962,13.4189988 Z" id="path-1"></path>
    </defs>
    <g id="Page-1" stroke="none" stroke-width="1" fill="none" fill-rule="evenodd">
        <g id="Coature-main-page-V3" transform="translate(-1561.000000, -5981.000000)">
            <g id="Group-5" transform="translate(1476.000000, 5981.000000)">
                <g id="linkedin-in" transform="translate(85.399999, 0.000000)">
                    <g fill="#222325" fill-rule="nonzero" id="path-1">
                        <path d="M3.04593234,13.4189988 L0.224724821,13.4189988 L0.224724821,4.58620272 L3.04593234,4.58620272 L3.04593234,13.4189988 Z M1.63381017,3.38132783 C0.731874071,3.38132783 0,2.65485914 0,1.77778109 C0,0.900703046 0.731874071,0.188999983 1.63381017,0.188999983 C2.53574626,0.188999983 3.26762034,0.900703046 3.26762034,1.77778109 C3.26762034,2.65485914 2.53574626,3.38132783 1.63381017,3.38132783 Z M13.604962,13.4189988 L10.7898281,13.4189988 L10.7898281,9.1192492 C10.7898281,8.09451488 10.7685703,6.78037441 9.32304312,6.78037441 C7.85625817,6.78037441 7.63153334,7.8937024 7.63153334,9.04542104 L7.63153334,13.4189988 L4.81336266,13.4189988 L4.81336266,4.58620272 L7.51917096,4.58620272 L7.51917096,5.79107758 L7.55864965,5.79107758 C7.93521556,5.0970933 8.85537256,4.36471837 10.2280161,4.36471837 C13.0826286,4.36471837 13.6079988,6.19270254 13.6079988,8.56701484 L13.6079988,13.4189988 L13.604962,13.4189988 Z"></path>
                    </g>
                    <g id="Colors/Primary-Clipped">
                        <mask id="mask-2" fill="white">
                            <use xlink:href="#path-1"></use>
                        </mask>
                        <g id="path-1"></g>
                        <g id="Colors/Primary" mask="url(#mask-2)" fill="#FFFFFF" fill-rule="nonzero">
                            <g transform="translate(-2.268000, -2.268000)" id="Rectangle">
                                <rect x="0" y="0" width="18.1439984" height="18.1439984"></rect>
                            </g>
                        </g>
                    </g>
                </g>
            </g>
        </g>
    </g>
</svg>