<?xml version="1.0" encoding="UTF-8"?>
<svg width="62px" height="62px" viewBox="0 0 62 62" version="1.1" xmlns="http://www.w3.org/2000/svg" xmlns:xlink="http://www.w3.org/1999/xlink">
    <!-- Generator: sketchtool 64 (101010) - https://sketch.com -->
    <title>730881D5-BD28-4E70-9BCB-657715F99425</title>
    <desc>Created with sketchtool.</desc>
    <g id="Page-1" stroke="none" stroke-width="1" fill="none" fill-rule="evenodd">
        <g id="Coature-main-page-V3" transform="translate(-430.000000, -3529.000000)" fill="#0B151E" fill-rule="nonzero">
            <g id="server" transform="translate(430.000000, 3529.000000)">
                <path d="M56.9463674,35.6028046 L56.9463674,30.5020839 C56.9463674,29.9606439 56.5075273,29.5216838 55.9659672,29.5216838 L31.7004041,29.5216838 L31.7004041,25.4911233 L44.7727258,25.4911233 C45.3142859,25.4911233 45.7531259,25.0521632 45.7531259,24.5107232 L45.7531259,19.2818425 C45.7531259,18.7404024 45.3142859,18.3014424 44.7727258,18.3014424 L44.4459657,18.3014424 L44.4459657,16.3406421 L44.7727258,16.3406421 C45.3142859,16.3406421 45.7531259,15.9016821 45.7531259,15.360242 L45.7531259,10.1311213 C45.7531259,9.58968124 45.3142859,9.15072118 44.7727258,9.15072118 L44.4459657,9.15072118 L44.4459657,7.18992093 L44.7727258,7.18992093 C45.3142859,7.18992093 45.7531259,6.75096087 45.7531259,6.2095208 L45.7531259,0.980400127 C45.7531259,0.438960057 45.3142859,0 44.7727258,0 L16.6672822,0 C16.1258421,0 15.686882,0.438960057 15.686882,0.980400127 L15.686882,6.2092808 C15.686882,6.75072087 16.1258421,7.18968093 16.6672822,7.18968093 L16.9940422,7.18968093 L16.9940422,9.15048118 L16.6672822,9.15048118 C16.1258421,9.15048118 15.686882,9.58944124 15.686882,10.1308813 L15.686882,15.360002 C15.686882,15.9014421 16.1258421,16.3404021 16.6672822,16.3404021 L16.9940422,16.3404021 L16.9940422,18.3012024 L16.6672822,18.3012024 C16.1258421,18.3012024 15.686882,18.7401624 15.686882,19.2816025 L15.686882,24.5104832 C15.686882,25.0519232 16.1258421,25.4908833 16.6672822,25.4908833 L29.7396038,25.4908833 L29.7396038,29.5214438 L5.47404071,29.5214438 C4.93260064,29.5214438 4.49364058,29.9604039 4.49364058,30.5018439 L4.49364058,35.6025646 C1.94172025,36.0664847 0,38.3036449 0,40.9873253 C0,44.0056857 2.45568032,46.461366 5.47404071,46.461366 C8.4924011,46.461366 10.9480814,44.0056857 10.9480814,40.9873253 C10.9480814,38.3036449 9.00636116,36.0664847 6.45444083,35.6029246 L6.45444083,31.4826041 L21.3242428,31.4826041 L21.3242428,35.6029246 C18.7724424,36.0664847 16.8306022,38.3036449 16.8306022,40.9873253 C16.8306022,44.0056857 19.2862825,46.461366 22.3046429,46.461366 C25.3230033,46.461366 27.7786836,44.0056857 27.7786836,40.9873253 C27.7786836,38.3036449 25.8369633,36.0664847 23.285043,35.6029246 L23.285043,31.4826041 L38.1548449,31.4826041 L38.1548449,35.6029246 C35.6030446,36.0664847 33.6612043,38.3036449 33.6612043,40.9873253 C33.6612043,44.0056857 36.1168847,46.461366 39.1352451,46.461366 C42.1536054,46.461366 44.6092858,44.0056857 44.6092858,40.9873253 C44.6092858,38.3036449 42.6675655,36.0664847 40.1156452,35.6029246 L40.1156452,31.4826041 L54.9854471,31.4826041 L54.9854471,35.6029246 C52.4336468,36.0664847 50.4918065,38.3036449 50.4918065,40.9873253 C50.4918065,44.0056857 52.9474868,46.461366 55.9658472,46.461366 C58.9842076,46.461366 61.4398879,44.0055657 61.4398879,40.9873253 C61.4398879,38.3036449 59.4982877,36.0664847 56.9463674,35.6028046 Z M8.98728116,40.9873253 C8.98728116,42.9244855 7.41132096,44.5005657 5.47404071,44.5005657 C3.53688046,44.5005657 1.96080025,42.9244855 1.96080025,40.9873253 C1.96080025,39.050165 3.53676046,37.4740848 5.47404071,37.4740848 C7.41120096,37.4740848 8.98728116,39.050045 8.98728116,40.9873253 Z M25.8178833,40.9873253 C25.8178833,42.9244855 24.2419231,44.5005657 22.3046429,44.5005657 C20.3673626,44.5005657 18.7914024,42.9246055 18.7914024,40.9873253 C18.7914024,39.050045 20.3673626,37.4740848 22.3046429,37.4740848 C24.2419231,37.4740848 25.8178833,39.050045 25.8178833,40.9873253 Z M17.6476823,1.96080025 L43.7923257,1.96080025 L43.7923257,5.22888068 L17.6476823,5.22888068 L17.6476823,1.96080025 Z M42.4851655,7.18980093 L42.4851655,9.15060118 L18.9548424,9.15060118 L18.9548424,7.18980093 L42.4851655,7.18980093 L42.4851655,7.18980093 Z M17.6476823,11.1115214 L43.7923257,11.1115214 L43.7923257,14.3796019 L39.5438451,14.3796019 C39.002285,14.3796019 38.563445,14.8185619 38.563445,15.360002 C38.563445,15.9014421 39.002285,16.3404021 39.5438451,16.3404021 L42.4851655,16.3404021 L42.4851655,18.3012024 L18.9548424,18.3012024 L18.9548424,16.3404021 L35.6221246,16.3404021 C36.1636847,16.3404021 36.6025247,15.9014421 36.6025247,15.360002 C36.6025247,14.8185619 36.1636847,14.3796019 35.6221246,14.3796019 L17.6476823,14.3796019 L17.6476823,11.1115214 Z M17.6476823,23.530203 L17.6476823,20.2621226 L43.7923257,20.2621226 L43.7923257,23.530203 L17.6476823,23.530203 Z M42.6484855,40.9873253 C42.6484855,42.9244855 41.0725253,44.5005657 39.1352451,44.5005657 C37.1979648,44.5005657 35.6220046,42.9244855 35.6220046,40.9873253 C35.6220046,39.050165 37.1979648,37.4740848 39.1352451,37.4740848 C41.0725253,37.4740848 42.6484855,39.050045 42.6484855,40.9873253 Z M55.9659672,44.5004457 C54.028807,44.5004457 52.4527268,42.9244855 52.4527268,40.9872053 C52.4527268,39.049925 54.028687,37.4739648 55.9659672,37.4739648 C57.9032475,37.4739648 59.4792077,39.049925 59.4792077,40.9872053 C59.4792077,42.9244855 57.9031275,44.5004457 55.9659672,44.5004457 Z" id="Shape"></path>
                <path d="M18.3830424,50.4919265 L14.8698019,50.4919265 L14.8698019,34.4238044 C14.8698019,33.8823644 14.4308419,33.4434043 13.8894018,33.4434043 C13.3479617,33.4434043 12.9090017,33.8823644 12.9090017,34.4238044 L12.9090017,50.4919265 L9.39576121,50.4919265 C8.85432114,50.4919265 8.41536109,50.9308866 8.41536109,51.4723266 L8.41536109,60.4596078 C8.41536109,61.0010479 8.85432114,61.4400079 9.39576121,61.4400079 L18.3830424,61.4400079 C18.9244824,61.4400079 19.3634425,61.0010479 19.3634425,60.4596078 L19.3634425,51.4723266 C19.3634425,50.9308866 18.9244824,50.4919265 18.3830424,50.4919265 Z M17.4025222,59.4792077 L10.3761613,59.4792077 L10.3761613,52.4528468 L17.4025222,52.4528468 L17.4025222,59.4792077 L17.4025222,59.4792077 Z" id="Shape"></path>
                <path d="M35.2136445,50.4919265 L31.7004041,50.4919265 L31.7004041,34.4238044 C31.7004041,33.8823644 31.261564,33.4434043 30.720004,33.4434043 C30.1785639,33.4434043 29.7396038,33.8823644 29.7396038,34.4238044 L29.7396038,50.4919265 L26.2263634,50.4919265 C25.6849233,50.4919265 25.2459633,50.9308866 25.2459633,51.4723266 L25.2459633,60.4596078 C25.2459633,61.0010479 25.6849233,61.4400079 26.2263634,61.4400079 L35.2136445,61.4400079 C35.7552046,61.4400079 36.1940447,61.0010479 36.1940447,60.4596078 L36.1940447,51.4723266 C36.1940447,50.9308866 35.7552046,50.4919265 35.2136445,50.4919265 Z M34.2332444,59.4792077 L27.2068835,59.4792077 L27.2068835,52.4528468 L34.2332444,52.4528468 L34.2332444,59.4792077 Z" id="Shape"></path>
                <path d="M52.0442467,50.4919265 L48.5310063,50.4919265 L48.5310063,34.4238044 C48.5310063,33.8823644 48.0921662,33.4434043 47.5506061,33.4434043 C47.0090461,33.4434043 46.570206,33.8823644 46.570206,34.4238044 L46.570206,50.4919265 L43.0569656,50.4919265 C42.5154055,50.4919265 42.0765654,50.9308866 42.0765654,51.4723266 L42.0765654,60.4596078 C42.0765654,61.0010479 42.5154055,61.4400079 43.0569656,61.4400079 L52.0442467,61.4400079 C52.5858068,61.4400079 53.0246468,61.0010479 53.0246468,60.4596078 L53.0246468,51.4723266 C53.0246468,50.9308866 52.5858068,50.4919265 52.0442467,50.4919265 Z M51.0638466,59.4792077 L44.0374857,59.4792077 L44.0374857,52.4528468 L51.0638466,52.4528468 L51.0638466,59.4792077 Z" id="Shape"></path>
            </g>
        </g>
    </g>
</svg>