<?xml version="1.0" encoding="UTF-8"?>
<svg width="62px" height="62px" viewBox="0 0 62 62" version="1.1" xmlns="http://www.w3.org/2000/svg" xmlns:xlink="http://www.w3.org/1999/xlink">
    <!-- Generator: sketchtool 64 (101010) - https://sketch.com -->
    <title>B2748A2A-37EC-42BE-91DD-91360E8CF0F3</title>
    <desc>Created with sketchtool.</desc>
    <g id="Page-1" stroke="none" stroke-width="1" fill="none" fill-rule="evenodd">
        <g id="Coature-main-page-V3" transform="translate(-1190.000000, -3529.000000)" fill="#0B151E" fill-rule="nonzero">
            <g id="team" transform="translate(1190.000000, 3529.000000)">
                <path d="M30.864484,0 C25.7827233,0 21.6484828,4.13424053 21.6484828,9.21600119 C21.6484828,14.2977618 25.7827233,18.4320024 30.864484,18.4320024 C35.9462446,18.4320024 40.0804852,14.2977618 40.0804852,9.21600119 C40.0804852,4.13424053 35.9462446,0 30.864484,0 Z M30.864484,16.4712021 C26.8639235,16.4712021 23.609283,13.2165617 23.609283,9.21600119 C23.609283,5.21544067 26.8640435,1.96080025 30.864484,1.96080025 C34.8650445,1.96080025 38.1196849,5.21544067 38.1196849,9.21600119 C38.1196849,13.2165617 34.8649245,16.4712021 30.864484,16.4712021 Z" id="Shape"></path>
                <path d="M32.8027242,9.61080124 C32.2962042,9.42024122 31.7306441,9.67632125 31.5399641,10.1830813 C31.4438441,10.4385613 31.172404,10.6100414 30.864364,10.6100414 C30.5565639,10.6100414 30.2848839,10.4384413 30.1887639,10.1829613 C29.9980839,9.67632125 29.4324038,9.42000122 28.9257637,9.61080124 C28.4191237,9.80148127 28.1629236,10.3670413 28.3536037,10.8736814 C28.7358037,11.8890015 29.7448838,12.5709616 30.864364,12.5709616 C31.9840841,12.5709616 32.9931643,11.8888815 33.3751243,10.8736814 C33.5658043,10.3669213 33.3094843,9.80148127 32.8027242,9.61080124 Z" id="Path"></path>
                <path d="M48.1627262,9.61080124 C47.6560862,9.42024122 47.0905261,9.67632125 46.8999661,10.1830813 C46.803846,10.4385613 46.532406,10.6100414 46.224366,10.6100414 C45.9165659,10.6100414 45.6448859,10.4384413 45.5487659,10.1829613 C45.3579659,9.67632125 44.7925258,9.42000122 44.2857657,9.61080124 C43.7791257,9.80148127 43.5229256,10.3670413 43.7136056,10.8736814 C44.0958057,11.8890015 45.1048858,12.5709616 46.224366,12.5709616 C47.3440861,12.5709616 48.3531662,11.8888815 48.7351263,10.8736814 C48.9258063,10.3669213 48.6694863,9.80148127 48.1627262,9.61080124 Z" id="Path"></path>
                <path d="M46.080006,20.3918426 C44.8088458,20.3918426 43.5432056,20.5483227 42.3178855,20.8569627 C41.7927654,20.9892027 41.4744054,21.5221228 41.6067654,22.0472428 C41.7391254,22.5723629 42.2718055,22.890843 42.7969255,22.7584829 C43.8657657,22.4892029 44.9703658,22.3527629 46.080006,22.3527629 C53.1386469,22.3527629 58.9400476,27.8390436 59.4436877,34.7714445 L49.0212063,34.7714445 C48.4796463,34.7714445 48.0408062,35.2104045 48.0408062,35.7518446 C48.0408062,36.2932847 48.4796463,36.7322447 49.0212063,36.7322447 L60.4594878,36.7322447 C61.0010479,36.7322447 61.4398879,36.2932847 61.4398879,35.7518446 C61.4398879,27.2822435 54.549607,20.3918426 46.080006,20.3918426 Z" id="Path"></path>
                <path d="M19.1221225,20.8569627 C17.8968023,20.5483227 16.6310421,20.3918426 15.360002,20.3918426 C6.89040089,20.3918426 0,27.2822435 0,35.7518446 C0,36.2932847 0.438840057,36.7322447 0.980400127,36.7322447 L11.3784015,36.7322447 L11.3784015,39.4514451 L7.32420095,47.0791261 C7.24884094,47.2208461 7.20960093,47.3787661 7.20960093,47.5393261 L7.20960093,55.7719272 C6.13140079,56.2084873 5.36868069,57.2659274 5.36868069,58.4988076 C5.36868069,60.1207278 6.68820086,61.4401279 8.31000107,61.4401279 C9.93180128,61.4401279 11.2513215,60.1207278 11.2513215,58.4988076 C11.2513215,57.1762874 10.3738813,56.0552472 9.17064118,55.6862472 L9.17064118,47.7836462 L13.2248417,40.1560852 C13.3002017,40.0143652 13.3394417,39.8564451 13.3394417,39.6958851 L13.3394417,35.7518446 C13.3394417,35.2104045 12.9006017,34.7714445 12.3590416,34.7714445 L1.99632026,34.7714445 C2.49996032,27.8390436 8.30124107,22.3526429 15.360002,22.3526429 C16.4697621,22.3526429 17.5743623,22.4890829 18.6430824,22.7583629 C19.1683225,22.890363 19.7010025,22.5722429 19.8332426,22.0471228 C19.9653626,21.5220028 19.6471225,20.9892027 19.1221225,20.8569627 Z M9.2902812,58.4986876 C9.2902812,59.0394076 8.85048114,59.4790877 8.30988107,59.4790877 C7.769161,59.4790877 7.32948095,59.0392876 7.32948095,58.4986876 C7.32948095,57.9579675 7.769281,57.5182874 8.30988107,57.5182874 C8.85048114,57.5182874 9.2902812,57.9580875 9.2902812,58.4986876 Z" id="Shape"></path>
                <path d="M30.720004,20.3917226 C22.2504029,20.3917226 15.360002,27.2821235 15.360002,35.7517246 C15.360002,36.2931647 15.798842,36.7321247 16.3404021,36.7321247 L19.3416025,36.7321247 L19.3416025,39.4514451 L15.287522,47.0790061 C15.212162,47.2207261 15.172922,47.3786461 15.172922,47.5392061 L15.172922,55.7262072 C14.0318418,56.1309672 13.2121217,57.2206874 13.2121217,58.4988076 C13.2121217,60.1207278 14.5316419,61.4401279 16.1534421,61.4401279 C17.7752423,61.4401279 19.0947625,60.1207278 19.0947625,58.4988076 C19.0947625,57.2206874 18.2750424,56.1308472 17.1339622,55.7262072 L17.1339622,47.7837662 L21.1880427,40.1562052 C21.2632827,40.0144852 21.3026428,39.8565651 21.3026428,39.6960051 L21.3026428,36.7323647 L29.7398438,36.7323647 L29.7398438,39.6960051 C29.7398438,39.8565651 29.7793238,40.0144852 29.8544439,40.1562052 L33.9086444,47.7837662 L33.9086444,55.7262072 C32.7675642,56.1309672 31.9478441,57.2206874 31.9478441,58.4988076 C31.9478441,60.1207278 33.2673643,61.4401279 34.8891645,61.4401279 C36.5109647,61.4401279 37.8304849,60.1207278 37.8304849,58.4988076 C37.8304849,57.2206874 37.0107648,56.1308472 35.8696846,55.7262072 L35.8696846,47.5392061 C35.8696846,47.3786461 35.8302046,47.2207261 35.7550846,47.0790061 L31.7008841,39.4514451 L31.7008841,36.7321247 L45.1000858,36.7321247 C45.6416459,36.7321247 46.080486,36.2931647 46.080486,35.7517246 C46.080006,27.2821235 39.1896051,20.3917226 30.720004,20.3917226 Z M16.1532021,59.4792077 C15.612482,59.4792077 15.172802,59.0394076 15.172802,58.4988076 C15.172802,57.9580875 15.612602,57.5184074 16.1532021,57.5184074 C16.6939222,57.5184074 17.1336022,57.9582075 17.1336022,58.4988076 C17.1336022,59.0394076 16.6939222,59.4792077 16.1532021,59.4792077 Z M34.8889245,57.5182874 C35.4296446,57.5182874 35.8693246,57.9580875 35.8693246,58.4986876 C35.8693246,59.0394076 35.4294046,59.4790877 34.8889245,59.4790877 C34.3482044,59.4790877 33.9085244,59.0392876 33.9085244,58.4986876 C33.9085244,57.9580875 34.3482044,57.5182874 34.8889245,57.5182874 Z M17.3563222,34.7714445 C17.8599623,27.8388036 23.6613631,22.3526429 30.720004,22.3526429 C37.7786449,22.3526429 43.5800456,27.8389236 44.0836857,34.7714445 L17.3563222,34.7714445 L17.3563222,34.7714445 Z" id="Shape"></path>
                <path d="M55.0910471,46.558806 L38.810645,46.558806 C38.2690849,46.558806 37.8302449,46.9977661 37.8302449,47.5392061 C37.8302449,48.0806462 38.2690849,48.5196063 38.810645,48.5196063 L55.0910471,48.5196063 C55.6326072,48.5196063 56.0714472,48.0806462 56.0714472,47.5392061 C56.0714472,46.9977661 55.6324872,46.558806 55.0910471,46.558806 Z" id="Path"></path>
                <path d="M55.0910471,50.4805265 L38.810645,50.4805265 C38.2690849,50.4805265 37.8302449,50.9194866 37.8302449,51.4609266 C37.8302449,52.0023667 38.2690849,52.4413268 38.810645,52.4413268 L55.0910471,52.4413268 C55.6326072,52.4413268 56.0714472,52.0023667 56.0714472,51.4609266 C56.0714472,50.9194866 55.6324872,50.4805265 55.0910471,50.4805265 Z" id="Path"></path>
                <path d="M55.0910471,54.402247 L46.9507261,54.402247 C46.409166,54.402247 45.9703259,54.8412071 45.9703259,55.3826472 C45.9703259,55.9240872 46.409166,56.3630473 46.9507261,56.3630473 L55.0910471,56.3630473 C55.6326072,56.3630473 56.0714472,55.9240872 56.0714472,55.3826472 C56.0714472,54.8412071 55.6324872,54.402247 55.0910471,54.402247 Z" id="Path"></path>
                <path d="M46.224486,0 C44.1432057,0 42.1778454,0.679080088 40.5406852,1.96404025 C40.1146852,2.2983603 40.0404052,2.91456038 40.3744852,3.34056043 C40.7089253,3.76656049 41.3253653,3.8408405 41.7511254,3.50652045 C43.0396856,2.49540032 44.5864858,1.96080025 46.224486,1.96080025 C50.2250465,1.96080025 53.4796869,5.21544067 53.4796869,9.21600119 C53.4796869,13.2165617 50.2250465,16.4712021 46.224486,16.4712021 C44.5866058,16.4712021 43.0398056,15.9368421 41.7511254,14.9254819 C41.3252453,14.5910419 40.7089253,14.6654419 40.3746052,15.0916819 C40.0402852,15.517562 40.1146852,16.1338821 40.5408052,16.4682021 C42.1779654,17.7529223 44.1435657,18.4320024 46.224486,18.4320024 C51.3062466,18.4320024 55.4404872,14.2977618 55.4404872,9.21600119 C55.4404872,4.13424053 51.3062466,0 46.224486,0 Z" id="Path"></path>
                <path d="M17.1541222,9.61104124 C16.6473621,9.42036122 16.0819221,9.67620125 15.8911221,10.1830813 C15.795002,10.4385613 15.523442,10.6101614 15.215522,10.6101614 C14.9074819,10.6101614 14.6360419,10.4385613 14.5399219,10.1832013 C14.3493619,9.67632125 13.7835618,9.42048122 13.2771617,9.61092124 C12.7704016,9.80148127 12.5139616,10.3670413 12.7047616,10.8738014 C13.0867217,11.8890015 14.0958018,12.5710816 15.215522,12.5710816 C16.3350021,12.5710816 17.3440822,11.8891215 17.7262823,10.8739214 C17.9170823,10.3672813 17.6608823,9.80172127 17.1541222,9.61104124 Z" id="Path"></path>
                <path d="M19.6890025,14.9254819 C18.4004424,15.9366021 16.8536422,16.4712021 15.215762,16.4712021 C11.2152014,16.4712021 7.96056103,13.2165617 7.96056103,9.21600119 C7.96056103,5.21544067 11.2150814,1.96080025 15.215522,1.96080025 C16.8534022,1.96080025 18.4002024,2.49528032 19.6888825,3.50652045 C20.1146426,3.8407205 20.7310827,3.76656049 21.0654027,3.34056043 C21.3997228,2.91456038 21.3253228,2.2983603 20.8992027,1.96404025 C19.2622825,0.679080088 17.2966822,0 15.215642,0 C10.1338813,0 5.99964077,4.13424053 5.99964077,9.21600119 C5.99964077,14.2977618 10.1337613,18.4320024 15.215642,18.4320024 C17.2966822,18.4320024 19.2620425,17.7529223 20.8993227,16.4680821 C21.3253228,16.1338821 21.3996028,15.517442 21.0655227,15.0915619 C20.7310827,14.6654419 20.1147626,14.5914019 19.6890025,14.9254819 Z" id="Path"></path>
            </g>
        </g>
    </g>
</svg>