<?xml version="1.0" encoding="UTF-8"?>
<svg width="16px" height="13px" viewBox="0 0 16 13" version="1.1" xmlns="http://www.w3.org/2000/svg" xmlns:xlink="http://www.w3.org/1999/xlink">
    <!-- Generator: sketchtool 64 (101010) - https://sketch.com -->
    <title>BDD86CB9-A146-4F16-B54B-B2F411C782BE</title>
    <desc>Created with sketchtool.</desc>
    <defs>
        <path d="M13.5657987,3.72434803 C13.5753963,3.85865615 13.5753963,3.99299379 13.5753963,4.1273019 C13.5753963,8.22387652 10.4573986,12.9440921 4.75860614,12.9440921 C3.00291442,12.9440921 1.37196269,12.4355935 2.95293574e-05,11.5529931 C0.249479978,11.5817566 0.489303236,11.5913542 0.748351339,11.5913542 C2.19700668,11.5913542 3.53057875,11.1020805 4.59550507,10.2674094 C3.23316956,10.2386163 2.09149154,9.34638878 1.69813532,8.11836138 C1.89002936,8.14712484 2.08189388,8.16632013 2.28338558,8.16632013 C2.56159946,8.16632013 2.83984288,8.12792955 3.09886145,8.06080499 C1.67896954,7.77296391 0.614013696,6.52577079 0.614013696,5.01952948 L0.614013696,4.98116839 C1.02653569,5.21142353 1.5062708,5.35532927 2.01471029,5.37449508 C1.18003912,4.81803778 0.633209003,3.8682538 0.633209003,2.79372984 C0.633209003,2.21810676 0.786682902,1.69044243 1.05532866,1.22993216 C2.58076524,3.11033434 4.87371895,4.3383322 7.44485699,4.47266984 C7.39689825,4.24241471 7.36810531,4.00259144 7.36810531,3.76273866 C7.36810531,2.05500568 8.74963607,0.663906736 10.4669372,0.663906736 C11.3591648,0.663906736 12.165043,1.03806764 12.7310979,1.64248369 C13.4314315,1.50817557 14.1030016,1.24912747 14.6978495,0.894161878 C14.4675648,1.61372025 13.9782911,2.21813629 13.335514,2.60186532 C13.9591253,2.53474079 14.5635414,2.36201253 15.1199691,2.12218927 C14.6979086,2.73617343 14.1702147,3.28300354 13.5657987,3.72434803 Z" id="path-1"></path>
    </defs>
    <g id="Page-1" stroke="none" stroke-width="1" fill="none" fill-rule="evenodd">
        <g id="Coature-main-page-V3" transform="translate(-1518.000000, -5981.000000)">
            <g id="Group-5" transform="translate(1476.000000, 5981.000000)">
                <g id="twitter" transform="translate(41.999999, 0.000000)">
                    <g fill="#222325" fill-rule="nonzero" id="path-1">
                        <path d="M13.5657987,3.72434803 C13.5753963,3.85865615 13.5753963,3.99299379 13.5753963,4.1273019 C13.5753963,8.22387652 10.4573986,12.9440921 4.75860614,12.9440921 C3.00291442,12.9440921 1.37196269,12.4355935 2.95293574e-05,11.5529931 C0.249479978,11.5817566 0.489303236,11.5913542 0.748351339,11.5913542 C2.19700668,11.5913542 3.53057875,11.1020805 4.59550507,10.2674094 C3.23316956,10.2386163 2.09149154,9.34638878 1.69813532,8.11836138 C1.89002936,8.14712484 2.08189388,8.16632013 2.28338558,8.16632013 C2.56159946,8.16632013 2.83984288,8.12792955 3.09886145,8.06080499 C1.67896954,7.77296391 0.614013696,6.52577079 0.614013696,5.01952948 L0.614013696,4.98116839 C1.02653569,5.21142353 1.5062708,5.35532927 2.01471029,5.37449508 C1.18003912,4.81803778 0.633209003,3.8682538 0.633209003,2.79372984 C0.633209003,2.21810676 0.786682902,1.69044243 1.05532866,1.22993216 C2.58076524,3.11033434 4.87371895,4.3383322 7.44485699,4.47266984 C7.39689825,4.24241471 7.36810531,4.00259144 7.36810531,3.76273866 C7.36810531,2.05500568 8.74963607,0.663906736 10.4669372,0.663906736 C11.3591648,0.663906736 12.165043,1.03806764 12.7310979,1.64248369 C13.4314315,1.50817557 14.1030016,1.24912747 14.6978495,0.894161878 C14.4675648,1.61372025 13.9782911,2.21813629 13.335514,2.60186532 C13.9591253,2.53474079 14.5635414,2.36201253 15.1199691,2.12218927 C14.6979086,2.73617343 14.1702147,3.28300354 13.5657987,3.72434803 Z"></path>
                    </g>
                    <g id="Colors/Primary-Clipped">
                        <mask id="mask-2" fill="white">
                            <use xlink:href="#path-1"></use>
                        </mask>
                        <g id="path-1"></g>
                        <g id="Colors/Primary" mask="url(#mask-2)" fill="#FFFFFF" fill-rule="nonzero">
                            <g transform="translate(-1.512000, -2.268000)" id="Rectangle">
                                <rect x="0" y="0" width="18.1439984" height="18.1439984"></rect>
                            </g>
                        </g>
                    </g>
                </g>
            </g>
        </g>
    </g>
</svg>