<?xml version="1.0" encoding="UTF-8"?>
<svg width="18px" height="13px" viewBox="0 0 18 13" version="1.1" xmlns="http://www.w3.org/2000/svg" xmlns:xlink="http://www.w3.org/1999/xlink">
    <!-- Generator: sketchtool 64 (101010) - https://sketch.com -->
    <title>D709A644-D512-431A-8A84-5485E66034CB</title>
    <desc>Created with sketchtool.</desc>
    <defs>
        <path d="M16.7530265,2.07362078 C16.5615868,1.34377808 15.9975393,0.768976803 15.2813704,0.57390976 C13.9832626,0.219450001 8.77800004,0.219450001 8.77800004,0.219450001 C8.77800004,0.219450001 3.57276793,0.219450001 2.27462974,0.57390976 C1.55846076,0.769007666 0.994413294,1.34377808 0.802973646,2.07362078 C0.455145394,3.3965031 0.455145394,6.15657375 0.455145394,6.15657375 C0.455145394,6.15657375 0.455145394,8.91664443 0.802973646,10.2395268 C0.994413294,10.9693695 1.55846076,11.5202233 2.27462974,11.7152903 C3.57276793,12.0697501 8.77800004,12.0697501 8.77800004,12.0697501 C8.77800004,12.0697501 13.9832321,12.0697501 15.2813704,11.7152903 C15.9975393,11.5202233 16.5615868,10.9693695 16.7530265,10.2395268 C17.1008547,8.91664443 17.1008547,6.15657375 17.1008547,6.15657375 C17.1008547,6.15657375 17.1008547,3.3965031 16.7530265,2.07362078 Z M7.0755862,8.66251105 L7.0755862,3.65063649 L11.426152,6.15663546 L7.0755862,8.66251105 Z" id="path-1"></path>
    </defs>
    <g id="Page-1" stroke="none" stroke-width="1" fill="none" fill-rule="evenodd">
        <g id="Coature-main-page-V3" transform="translate(-1603.000000, -5982.000000)">
            <g id="Group-5" transform="translate(1476.000000, 5981.000000)">
                <g id="youtube" transform="translate(127.399998, 1.400000)">
                    <g fill="#222325" fill-rule="nonzero" id="path-1">
                        <path d="M16.7530265,2.07362078 C16.5615868,1.34377808 15.9975393,0.768976803 15.2813704,0.57390976 C13.9832626,0.219450001 8.77800004,0.219450001 8.77800004,0.219450001 C8.77800004,0.219450001 3.57276793,0.219450001 2.27462974,0.57390976 C1.55846076,0.769007666 0.994413294,1.34377808 0.802973646,2.07362078 C0.455145394,3.3965031 0.455145394,6.15657375 0.455145394,6.15657375 C0.455145394,6.15657375 0.455145394,8.91664443 0.802973646,10.2395268 C0.994413294,10.9693695 1.55846076,11.5202233 2.27462974,11.7152903 C3.57276793,12.0697501 8.77800004,12.0697501 8.77800004,12.0697501 C8.77800004,12.0697501 13.9832321,12.0697501 15.2813704,11.7152903 C15.9975393,11.5202233 16.5615868,10.9693695 16.7530265,10.2395268 C17.1008547,8.91664443 17.1008547,6.15657375 17.1008547,6.15657375 C17.1008547,6.15657375 17.1008547,3.3965031 16.7530265,2.07362078 Z M7.0755862,8.66251105 L7.0755862,3.65063649 L11.426152,6.15663546 L7.0755862,8.66251105 Z"></path>
                    </g>
                    <g id="Colors/Primary-Clipped">
                        <mask id="mask-2" fill="white">
                            <use xlink:href="#path-1"></use>
                        </mask>
                        <g id="path-1"></g>
                        <g id="Colors/Primary" mask="url(#mask-2)" fill="#FFFFFF" fill-rule="nonzero">
                            <g transform="translate(-1.755600, -4.389000)" id="Rectangle">
                                <rect x="0" y="0" width="21.0672001" height="21.0672001"></rect>
                            </g>
                        </g>
                    </g>
                </g>
            </g>
        </g>
    </g>
</svg>